<svg width="76" height="32" viewBox="0 0 76 32" fill="none" xmlns="http://www.w3.org/2000/svg">
<path fill-rule="evenodd" clip-rule="evenodd" d="M10.0384 6.29887C11.4486 6.41782 12.8587 5.58517 13.74 4.52947C14.6067 3.44404 15.1795 1.98689 15.0326 0.5C13.7841 0.559476 12.2418 1.33266 11.3604 2.41809C10.5526 3.35483 9.86218 4.87146 10.0384 6.29887ZM26.8134 25.4499V2.26933H35.4063C39.8423 2.26933 42.9417 5.36206 42.9417 9.88221C42.9417 14.4023 39.7836 17.5248 35.2888 17.5248H30.3681V25.4499H26.8134ZM15.018 6.58156C13.7757 6.50918 12.6422 6.95974 11.7266 7.32368C11.1374 7.55788 10.6384 7.7562 10.2588 7.7562C9.83286 7.7562 9.31332 7.54727 8.72998 7.31269C7.96563 7.00532 7.09176 6.6539 6.17536 6.67077C4.07487 6.70051 2.12126 7.90489 1.04898 9.82298C-1.15434 13.6592 0.476114 19.3391 2.60599 22.4615C3.64889 24.0079 4.89744 25.703 6.54258 25.6435C7.26634 25.6158 7.78698 25.3922 8.32579 25.1608C8.9461 24.8943 9.5905 24.6175 10.5967 24.6175C11.568 24.6175 12.1842 24.8871 12.7757 25.1459C13.3382 25.3919 13.8783 25.6282 14.6802 25.6137C16.3841 25.584 17.4563 24.0674 18.4992 22.521C19.6247 20.8614 20.1193 19.2416 20.1943 18.9958L20.2031 18.9673C20.2013 18.9655 20.1874 18.9591 20.1629 18.9477C19.7867 18.7734 16.9111 17.4408 16.8835 13.8673C16.8558 10.8679 19.1644 9.34824 19.5278 9.10903C19.5499 9.09447 19.5648 9.08465 19.5715 9.07953C18.1026 6.87893 15.8112 6.64103 15.018 6.58156ZM49.4342 25.6285C51.6669 25.6285 53.7381 24.4836 54.6781 22.6696H54.7516V25.4501H58.0419V13.9118C58.0419 10.5663 55.3979 8.41032 51.3291 8.41032C47.5541 8.41032 44.7632 10.5961 44.6604 13.5996H47.8626C48.1269 12.1722 49.4342 11.2354 51.2263 11.2354C53.4002 11.2354 54.6194 12.2614 54.6194 14.1497V15.4284L50.1834 15.6961C46.0558 15.9489 43.8231 17.6588 43.8231 20.6326C43.8231 23.6361 46.1293 25.6285 49.4342 25.6285ZM50.3888 22.8776C48.4939 22.8776 47.2895 21.9557 47.2895 20.5432C47.2895 19.086 48.4499 18.2385 50.6679 18.1047L54.6192 17.8519V19.1604C54.6192 21.3312 52.7978 22.8776 50.3888 22.8776ZM68.9554 26.357C67.5306 30.4162 65.9002 31.7544 62.4336 31.7544C62.1692 31.7544 61.2879 31.7247 61.0822 31.6652V28.8847C61.3026 28.9144 61.8461 28.9442 62.1252 28.9442C63.6969 28.9442 64.5782 28.2751 65.1217 26.5354L65.4448 25.5095L59.4224 8.63328H63.1387L67.325 22.3275H67.3984L71.5847 8.63328H75.1982L68.9554 26.357ZM30.3676 5.30247H34.4657C37.5504 5.30247 39.313 6.96779 39.313 9.89696C39.313 12.8261 37.5504 14.5063 34.451 14.5063H30.3676V5.30247Z" fill="#57626C"/>
</svg>
