<svg width="75" height="32" viewBox="0 0 75 32" fill="none" xmlns="http://www.w3.org/2000/svg">
<path fill-rule="evenodd" clip-rule="evenodd" d="M34.5904 24.7744V15.7115H39.2679C41.1847 15.7115 42.8025 15.0693 44.1213 13.8026L44.4378 13.4815C46.8469 10.859 46.6887 6.77354 44.1213 4.34727C42.8376 3.06277 41.0792 2.36699 39.2679 2.40267H31.7593V24.7744H34.5904ZM34.5909 12.964V5.14997H39.3396C40.3596 5.14997 41.3269 5.54246 42.048 6.25607C43.5781 7.75465 43.6133 10.2523 42.136 11.8044C41.4149 12.5715 40.3948 12.9997 39.3396 12.964H34.5909ZM57.6441 10.6628C56.4307 9.53891 54.7778 8.96802 52.6852 8.96802C49.9947 8.96802 47.9725 9.96708 46.6361 11.9473L49.1331 13.5351C50.0475 12.1793 51.296 11.5013 52.8786 11.5013C53.881 11.5013 54.8481 11.876 55.6043 12.5539C56.3428 13.1962 56.7648 14.1239 56.7648 15.1051V15.7652C55.6746 15.1586 54.303 14.8375 52.6149 14.8375C50.6454 14.8375 49.0628 15.3013 47.8846 16.2469C46.7064 17.1924 46.1085 18.4412 46.1085 20.029C46.0734 21.4741 46.6888 22.8478 47.7791 23.7755C48.8869 24.7745 50.2937 25.274 51.9466 25.274C53.8985 25.274 55.446 24.3999 56.6242 22.6515H56.7473V24.7745H59.4553V15.337C59.4553 13.3567 58.8574 11.7868 57.6441 10.6628ZM49.9598 21.9558C49.3794 21.5277 49.0277 20.8319 49.0277 20.0826C49.0277 19.2441 49.4146 18.5483 50.1709 17.9953C50.9447 17.4422 51.912 17.1568 53.0552 17.1568C54.6381 17.1389 55.8692 17.4958 56.7486 18.2094C56.7486 19.4225 56.2737 20.4751 55.3416 21.3671C54.4974 22.2234 53.3542 22.7051 52.1583 22.7051C51.3668 22.723 50.593 22.4554 49.9598 21.9558ZM65.5394 31.5003L75 9.46758H71.9226L67.5441 20.4572H67.4913L63.0072 9.46758H59.9299L66.1373 23.7933L62.6204 31.5003H65.5394Z" fill="#57626C"/>
<path d="M24.816 13.749C24.816 12.8748 24.7457 12.0006 24.605 11.1443H12.665V16.086H19.5055C19.2241 17.6738 18.3097 19.1011 16.9733 19.9931V23.2043H21.0529C23.4444 20.9743 24.816 17.6738 24.816 13.749Z" fill="#57626C"/>
<path d="M12.6656 26.3083C16.077 26.3083 18.9609 25.1666 21.0535 23.2041L16.9738 19.9929C15.8308 20.7778 14.3713 21.2239 12.6656 21.2239C9.35967 21.2239 6.56371 18.9581 5.56138 15.9253H1.35864V19.2436C3.50397 23.5788 7.88256 26.3083 12.6656 26.3083Z" fill="#57626C"/>
<path d="M5.56204 15.9253C5.03442 14.3375 5.03442 12.607 5.56204 11.0014V7.70093H1.35863C-0.452878 11.3225 -0.452878 15.6042 1.35863 19.2258L5.56204 15.9253Z" fill="#57626C"/>
<path d="M12.6656 5.70293C14.4768 5.66725 16.2177 6.36302 17.519 7.62968L21.1414 3.95458C18.8378 1.77807 15.8132 0.582772 12.6656 0.618452C7.88256 0.618452 3.50397 3.36586 1.35864 7.70104L5.56138 11.0193C6.56371 7.96865 9.35967 5.70293 12.6656 5.70293Z" fill="#57626C"/>
</svg>
