<svg width="32" height="32" viewBox="0 0 32 32" fill="none" xmlns="http://www.w3.org/2000/svg">
<g clip-path="url(#clip0_894_118037)">
<path d="M16.495 7.35498C15.5102 8.87136 13.9003 11.7295 13.5825 14.6177H19.3903C19.0752 11.7236 17.4751 8.87004 16.495 7.35498Z" fill="#FFC700"/>
<path d="M7.57202 14.6177H11.6105C11.889 11.5739 13.3812 8.64905 14.4902 6.84692C10.8127 7.68911 7.98921 10.797 7.57202 14.6177Z" fill="#FFC700"/>
<path d="M18.4958 6.84497C19.599 8.6471 21.0846 11.5726 21.3619 14.6177H25.4205C25.0034 10.7945 22.1766 7.68522 18.4958 6.84497Z" fill="#FFC700"/>
<path d="M13.5825 16.5793C13.899 19.4728 15.5082 22.3277 16.493 23.8414C17.4725 22.325 19.0738 19.4669 19.3897 16.5793H13.5825Z" fill="#FFC700"/>
<path d="M11.6105 16.5793H7.57202C7.98921 20.3993 10.8127 23.5073 14.4901 24.3502C13.3812 22.548 11.889 19.6232 11.6105 16.5793Z" fill="#FFC700"/>
<path d="M27.4117 4.58831C24.4528 1.6295 20.519 0 16.3341 0C12.1499 0 8.21612 1.6295 5.25725 4.58831C2.72737 7.11756 1.12862 10.4661 0.75525 14.0174C0.404125 17.3581 1.143 20.7504 2.83787 23.6243L0 32L8.37569 29.1614C11.2495 30.857 14.6412 31.5952 17.9819 31.2441C21.5332 30.8707 24.8818 29.2719 27.4117 26.7427C30.3705 23.7839 32 19.8494 32 15.6652C32 11.4809 30.3705 7.54719 27.4117 4.58831ZM16.4963 26.5381C10.4642 26.5381 5.55675 21.6306 5.55675 15.5985C5.55675 9.56638 10.4642 4.65894 16.4963 4.65894C22.5284 4.65894 27.4359 9.56638 27.4359 15.5985C27.4359 21.6306 22.5284 26.5381 16.4963 26.5381Z" fill="#FFC700"/>
<path d="M21.3619 16.5793C21.0846 19.6238 19.599 22.55 18.4958 24.3515C22.1766 23.5112 25.0034 20.402 25.4205 16.5793H21.3619Z" fill="#FFC700"/>
</g>
<defs>
<clipPath id="clip0_894_118037">
<rect width="32" height="32" fill="white"/>
</clipPath>
</defs>
</svg>
