<svg width="169" height="34" viewBox="0 0 169 34" fill="none" xmlns="http://www.w3.org/2000/svg">
<path d="M162.209 28.352C160.771 28.352 159.547 28.1247 158.535 27.67C157.523 27.2153 156.738 26.57 156.181 25.734C155.623 24.898 155.308 23.908 155.235 22.764L159.525 22.566C159.598 23.0793 159.745 23.5193 159.965 23.886C160.185 24.238 160.478 24.5093 160.845 24.7C161.226 24.876 161.695 24.964 162.253 24.964C162.693 24.964 163.067 24.92 163.375 24.832C163.683 24.7293 163.917 24.5753 164.079 24.37C164.24 24.1647 164.321 23.908 164.321 23.6C164.321 23.3213 164.247 23.0793 164.101 22.874C163.969 22.654 163.697 22.4633 163.287 22.302C162.891 22.126 162.297 21.9573 161.505 21.796C160.082 21.5027 158.931 21.1653 158.051 20.784C157.171 20.388 156.525 19.882 156.115 19.266C155.719 18.65 155.521 17.8653 155.521 16.912C155.521 15.944 155.77 15.0933 156.269 14.36C156.767 13.6267 157.486 13.0547 158.425 12.644C159.363 12.2333 160.493 12.028 161.813 12.028C163.206 12.028 164.372 12.2627 165.311 12.732C166.249 13.2013 166.975 13.8467 167.489 14.668C168.017 15.4893 168.332 16.4427 168.435 17.528L164.189 17.704C164.159 17.22 164.042 16.8093 163.837 16.472C163.631 16.1347 163.353 15.878 163.001 15.702C162.663 15.5113 162.253 15.416 161.769 15.416C161.153 15.416 160.676 15.5407 160.339 15.79C160.001 16.0393 159.833 16.3693 159.833 16.78C159.833 17.1027 159.913 17.374 160.075 17.594C160.251 17.814 160.529 17.9973 160.911 18.144C161.307 18.2907 161.842 18.4227 162.517 18.54C164.057 18.804 165.274 19.1633 166.169 19.618C167.063 20.0727 167.694 20.6153 168.061 21.246C168.442 21.8767 168.633 22.6027 168.633 23.424C168.633 24.436 168.376 25.316 167.863 26.064C167.364 26.7973 166.631 27.362 165.663 27.758C164.709 28.154 163.558 28.352 162.209 28.352Z" fill="white"/>
<path d="M140.116 28V12.38H147.574C148.747 12.38 149.767 12.5707 150.632 12.952C151.512 13.3333 152.187 13.8687 152.656 14.558C153.14 15.2473 153.382 16.0613 153.382 17C153.382 17.7333 153.243 18.386 152.964 18.958C152.685 19.5153 152.282 19.9773 151.754 20.344C151.226 20.7107 150.588 20.96 149.84 21.092L149.796 20.872C150.896 20.872 151.717 21.1067 152.26 21.576C152.803 22.0307 153.103 22.7053 153.162 23.6L153.514 28H149.114L148.894 24.348C148.865 23.776 148.711 23.358 148.432 23.094C148.153 22.8153 147.662 22.676 146.958 22.676H144.428V28H140.116ZM144.428 19.222H146.782C147.501 19.222 148.043 19.0753 148.41 18.782C148.791 18.474 148.982 18.0487 148.982 17.506C148.982 16.9487 148.791 16.5307 148.41 16.252C148.043 15.9733 147.501 15.834 146.782 15.834H144.428V19.222Z" fill="white"/>
<path d="M126.13 28V12.38H137.702V15.834H130.442V18.452H137.438V21.884H130.442V24.546H137.878V28H126.13Z" fill="white"/>
<path d="M109.737 28V12.38H114.093L119.307 21.18V12.38H123.619V28H119.263L114.049 19.64V28H109.737Z" fill="white"/>
<path d="M99.5044 28V15.834H94.9504V12.38H108.392V15.834H103.838V28H99.5044Z" fill="white"/>
<path d="M80.7332 28V12.38H88.1912C89.3645 12.38 90.3838 12.5707 91.2492 12.952C92.1292 13.3333 92.8038 13.8687 93.2732 14.558C93.7572 15.2473 93.9992 16.0613 93.9992 17C93.9992 17.7333 93.8598 18.386 93.5812 18.958C93.3025 19.5153 92.8992 19.9773 92.3712 20.344C91.8432 20.7107 91.2052 20.96 90.4572 21.092L90.4132 20.872C91.5132 20.872 92.3345 21.1067 92.8772 21.576C93.4198 22.0307 93.7205 22.7053 93.7792 23.6L94.1312 28H89.7312L89.5112 24.348C89.4818 23.776 89.3278 23.358 89.0492 23.094C88.7705 22.8153 88.2792 22.676 87.5752 22.676H85.0452V28H80.7332ZM85.0452 19.222H87.3992C88.1178 19.222 88.6605 19.0753 89.0272 18.782C89.4085 18.474 89.5992 18.0487 89.5992 17.506C89.5992 16.9487 89.4085 16.5307 89.0272 16.252C88.6605 15.9733 88.1178 15.834 87.3992 15.834H85.0452V19.222Z" fill="white"/>
<path d="M63.437 28L69.069 12.38H73.975L79.607 28H75.207L74.327 25.426H68.695L67.815 28H63.437ZM69.839 22.082H73.205L71.533 17.132L69.839 22.082Z" fill="white"/>
<path d="M51.364 28V12.38H58.052C60.0173 12.38 61.5573 12.8567 62.672 13.81C63.8013 14.7633 64.366 16.0687 64.366 17.726C64.366 18.8113 64.1093 19.7573 63.596 20.564C63.0973 21.356 62.3713 21.972 61.418 22.412C60.4793 22.8373 59.3573 23.05 58.052 23.05H55.676V28H51.364ZM55.676 19.596H57.722C58.3967 19.596 58.9393 19.442 59.35 19.134C59.7607 18.8113 59.966 18.342 59.966 17.726C59.966 17.11 59.7607 16.6407 59.35 16.318C58.954 15.9953 58.4113 15.834 57.722 15.834H55.676V19.596Z" fill="white"/>
<path d="M0.0167278 10.5792L12.1963 32.9021C12.7008 33.0403 12.9423 33.0247 13.334 32.9021L16.68 26.6574C16.8168 26.1514 16.8302 25.8339 16.68 25.2219L7.84647 9.43077C7.84647 9.43077 0.685931 9.28721 0.619016 9.28721C0.552102 9.28721 0.217484 9.57432 0.0836488 9.93321C-0.0501867 10.2921 0.0167278 10.5792 0.0167278 10.5792Z" fill="white"/>
<path d="M36.4038 11.2865L25.0635 32.7785C24.991 32.9159 24.8607 33 24.7201 33H24.0576C23.9197 33 23.7914 32.9191 23.7181 32.7859L18.3238 22.9886C18.2964 22.9388 18.2776 22.8837 18.2706 22.8254C18.2488 22.646 18.2109 22.2307 18.2823 21.956C18.3325 21.7631 18.4635 21.5368 18.5603 21.3866C18.63 21.2784 18.7422 21.2197 18.86 21.2197H22.2396C22.379 21.2197 22.5083 21.1372 22.5812 21.0018L25.8527 14.9258C25.9372 14.769 25.9309 14.5697 25.8369 14.4202L23.8457 11.2524C23.7969 11.1747 23.7706 11.0815 23.7706 10.986V9.59735C23.7706 9.34676 23.9475 9.14287 24.1672 9.14019L35.6678 9.00008C35.7881 8.99862 35.9029 9.05868 35.9747 9.16884C36.1251 9.39963 36.3756 9.82253 36.446 10.1758C36.5061 10.4772 36.4739 10.9232 36.4557 11.1142C36.4499 11.1754 36.4316 11.2338 36.4038 11.2865Z" fill="white"/>
<path d="M20.2703 18.488L15.2849 18.3615L13.4535 14.8193L12.3343 12.7952L11.5204 11.0241V10.3916L11.6221 9.75905L11.7239 9.50604L12.0291 9.12652L18.8459 9.00002L22.3052 15.3253L20.2703 18.488Z" fill="white"/>
<path d="M20.2703 18.488L15.2849 18.3615L13.4535 14.8193L12.3343 12.7952L11.5204 11.0241V10.3916L11.6221 9.75905L11.7239 9.50604L12.0291 9.12652L18.8459 9.00002L22.3052 15.3253L20.2703 18.488Z" fill="url(#paint0_linear_1064_123)"/>
<path d="M20.2703 18.488L15.2849 18.3615L13.4535 14.8193L12.3343 12.7952L11.5204 11.0241V10.3916L11.6221 9.75905L11.7239 9.50604L12.0291 9.12652L18.8459 9.00002L22.3052 15.3253L20.2703 18.488Z" fill="url(#paint1_linear_1064_123)"/>
<path d="M20.2703 18.488L15.2849 18.3615L13.4535 14.8193L12.3343 12.7952L11.5204 11.0241V10.3916L11.6221 9.75905L11.7239 9.50604L12.0291 9.12652L18.8459 9.00002L22.3052 15.3253L20.2703 18.488Z" fill="white"/>
<path d="M20.2703 18.488L15.2849 18.3615L13.4535 14.8193L12.3343 12.7952L11.5204 11.0241V10.3916L11.6221 9.75905L11.7239 9.50604L12.0291 9.12652L18.8459 9.00002L22.3052 15.3253L20.2703 18.488Z" fill="url(#paint2_linear_1064_123)"/>
<path d="M20.2703 18.488L15.2849 18.3615L13.4535 14.8193L12.3343 12.7952L11.5204 11.0241V10.3916L11.6221 9.75905L11.7239 9.50604L12.0291 9.12652L18.8459 9.00002L22.3052 15.3253L20.2703 18.488Z" fill="url(#paint3_linear_1064_123)"/>
<g filter="url(#filter0_f_1064_123)">
<path d="M20.7065 18.961L15.4726 18.8282L13.5499 15.1094L12.3749 12.9844L11.5204 11.125V10.4609L11.6272 9.79688L11.734 9.53125L12.0545 9.13281L19.2111 9L22.8429 15.6407L20.7065 18.961Z" fill="white"/>
<path d="M20.7065 18.961L15.4726 18.8282L13.5499 15.1094L12.3749 12.9844L11.5204 11.125V10.4609L11.6272 9.79688L11.734 9.53125L12.0545 9.13281L19.2111 9L22.8429 15.6407L20.7065 18.961Z" fill="url(#paint4_linear_1064_123)"/>
<path d="M20.7065 18.961L15.4726 18.8282L13.5499 15.1094L12.3749 12.9844L11.5204 11.125V10.4609L11.6272 9.79688L11.734 9.53125L12.0545 9.13281L19.2111 9L22.8429 15.6407L20.7065 18.961Z" fill="url(#paint5_linear_1064_123)"/>
</g>
<path d="M20.7065 18.961L15.4726 18.8282L13.5499 15.1094L12.3749 12.9844L11.5204 11.125V10.4609L11.6272 9.79688L11.734 9.53125L12.0545 9.13281L19.2111 9L22.8429 15.6407L20.7065 18.961Z" fill="white"/>
<path d="M20.7065 18.961L15.4726 18.8282L13.5499 15.1094L12.3749 12.9844L11.5204 11.125V10.4609L11.6272 9.79688L11.734 9.53125L12.0545 9.13281L19.2111 9L22.8429 15.6407L20.7065 18.961Z" fill="url(#paint6_linear_1064_123)"/>
<path d="M20.7065 18.961L15.4726 18.8282L13.5499 15.1094L12.3749 12.9844L11.5204 11.125V10.4609L11.6272 9.79688L11.734 9.53125L12.0545 9.13281L19.2111 9L22.8429 15.6407L20.7065 18.961Z" fill="url(#paint7_linear_1064_123)"/>
<path fill-rule="evenodd" clip-rule="evenodd" d="M43.5 8.5C43.7761 8.5 44 8.72386 44 9L44 33C44 33.2761 43.7761 33.5 43.5 33.5C43.2239 33.5 43 33.2761 43 33L43 9C43 8.72386 43.2239 8.5 43.5 8.5Z" fill="white" fill-opacity="0.12"/>
<defs>
<filter id="filter0_f_1064_123" x="3.12039" y="0.6" width="28.1225" height="26.761" filterUnits="userSpaceOnUse" color-interpolation-filters="sRGB">
<feFlood flood-opacity="0" result="BackgroundImageFix"/>
<feBlend mode="normal" in="SourceGraphic" in2="BackgroundImageFix" result="shape"/>
<feGaussianBlur stdDeviation="4.2" result="effect1_foregroundBlur_1064_123"/>
</filter>
<linearGradient id="paint0_linear_1064_123" x1="19.3583" y1="9.00002" x2="13.6657" y2="17.0849" gradientUnits="userSpaceOnUse">
<stop stop-color="#FFED72"/>
<stop offset="1" stop-color="#FB5A00"/>
</linearGradient>
<linearGradient id="paint1_linear_1064_123" x1="16.9128" y1="9.00002" x2="16.9128" y2="18.488" gradientUnits="userSpaceOnUse">
<stop stop-color="#FFED72"/>
<stop offset="1" stop-color="#FB9700"/>
</linearGradient>
<linearGradient id="paint2_linear_1064_123" x1="19.3583" y1="9.00002" x2="13.6657" y2="17.0849" gradientUnits="userSpaceOnUse">
<stop stop-color="#FFED72"/>
<stop offset="1" stop-color="#FB5A00"/>
</linearGradient>
<linearGradient id="paint3_linear_1064_123" x1="16.9128" y1="9.00002" x2="16.9128" y2="18.488" gradientUnits="userSpaceOnUse">
<stop stop-color="#FFED72"/>
<stop offset="1" stop-color="#FB9700"/>
</linearGradient>
<linearGradient id="paint4_linear_1064_123" x1="19.7491" y1="9" x2="13.7726" y2="17.488" gradientUnits="userSpaceOnUse">
<stop stop-color="#FFED72"/>
<stop offset="1" stop-color="#FB5A00"/>
</linearGradient>
<linearGradient id="paint5_linear_1064_123" x1="17.1816" y1="9" x2="17.1816" y2="18.961" gradientUnits="userSpaceOnUse">
<stop stop-color="#FFED72"/>
<stop offset="1" stop-color="#FB9700"/>
</linearGradient>
<linearGradient id="paint6_linear_1064_123" x1="19.7491" y1="9" x2="13.7726" y2="17.488" gradientUnits="userSpaceOnUse">
<stop stop-color="#FFED72"/>
<stop offset="1" stop-color="#FB5A00"/>
</linearGradient>
<linearGradient id="paint7_linear_1064_123" x1="17.1816" y1="9" x2="17.1816" y2="18.961" gradientUnits="userSpaceOnUse">
<stop stop-color="#FFED72"/>
<stop offset="1" stop-color="#FB9700"/>
</linearGradient>
</defs>
</svg>
