<svg width="28" height="18" viewBox="0 0 28 18" fill="none" xmlns="http://www.w3.org/2000/svg">
<path d="M27.7754 1.01252C27.7481 0.963508 27.7176 0.916269 27.6842 0.871094L19.2646 7.73035L27.6126 17.2382C27.8634 16.9092 27.9993 16.5088 28 16.0971V1.90288C28.0002 1.59239 27.9231 1.28663 27.7754 1.01252Z" fill="#FFC700"/>
<path d="M0.325582 0.871094C0.292171 0.916269 0.261721 0.963508 0.234419 1.01252C0.0833188 1.28576 0.00280216 1.59158 0 1.90288V16.0971C0.000704265 16.5088 0.136654 16.9092 0.387443 17.2382L8.73537 7.73035L0.325582 0.871094Z" fill="#FFC700"/>
<path d="M13.9998 10.0704C14.5577 10.069 15.0976 9.87581 15.5268 9.52397L26.9548 0.202579C26.6812 0.0667217 26.3787 -0.00270134 26.0724 8.0419e-05H1.92725C1.61994 0.00127702 1.31739 0.0751224 1.04492 0.215437L12.4729 9.53682C12.9041 9.88356 13.4437 10.0721 13.9998 10.0704Z" fill="#FFC700"/>
<path d="M16.1489 10.2857C15.5448 10.7802 14.7848 11.0509 14.0001 11.0509C13.2153 11.0509 12.4553 10.7802 11.8512 10.2857L9.48749 8.35718L1.15259 17.8393C1.39678 17.9454 1.66068 18.0001 1.92747 18H26.0727C26.3395 18.0001 26.6034 17.9454 26.8475 17.8393L18.5126 8.35718L16.1489 10.2857Z" fill="#FFC700"/>
</svg>
