<svg width="68" height="42" viewBox="0 0 68 42" fill="none" xmlns="http://www.w3.org/2000/svg">
<path fill-rule="evenodd" clip-rule="evenodd" d="M47.5288 41.9179C58.8348 41.9179 68.0001 32.6462 68.0001 21.209C68.0001 9.77172 58.8348 0.5 47.5288 0.5C42.4618 0.5 37.8247 2.36227 34.25 5.44714C30.6753 2.36229 26.0383 0.500031 20.9713 0.500031C9.66532 0.500031 0.5 9.77175 0.5 21.209C0.5 32.6462 9.66532 41.9179 20.9713 41.9179C26.0383 41.9179 30.6753 40.0557 34.2501 36.9708C37.8248 40.0556 42.4618 41.9179 47.5288 41.9179Z" fill="#383E43"/>
<path fill-rule="evenodd" clip-rule="evenodd" d="M34.25 36.9708C38.6516 33.1724 41.4426 27.5204 41.4426 21.209C41.4426 14.8975 38.6516 9.24553 34.25 5.44712C37.8247 2.36227 42.4617 0.5 47.5287 0.5C58.8347 0.5 68 9.77172 68 21.209C68 32.6462 58.8347 41.9179 47.5287 41.9179C42.4617 41.9179 37.8247 40.0556 34.25 36.9708Z" fill="#57626C"/>
<path fill-rule="evenodd" clip-rule="evenodd" d="M34.25 36.9707C38.6515 33.1723 41.4425 27.5203 41.4425 21.2089C41.4425 14.8974 38.6515 9.24543 34.25 5.44702C29.8484 9.24543 27.0574 14.8974 27.0574 21.2089C27.0574 27.5203 29.8484 33.1723 34.25 36.9707Z" fill="#57626C"/>
</svg>
