<svg width="83" height="30" viewBox="0 0 83 30" fill="none" xmlns="http://www.w3.org/2000/svg">
<path fill-rule="evenodd" clip-rule="evenodd" d="M0.154305 22.0192L0.154308 22.0192L0.15431 22.0192C0.230531 21.586 0.304385 21.1663 0.389284 20.7466C0.748844 18.8482 1.1109 16.9523 1.47296 15.0564L1.47297 15.0563C1.83503 13.1604 2.19709 11.2644 2.55666 9.36596C2.6066 9.12553 2.67651 8.96523 2.91622 8.92516C4.78396 8.64465 6.66168 8.44429 8.52942 8.91514C10.1574 9.31587 11.2961 10.468 11.4858 11.8204C11.8754 14.5153 10.3073 16.6692 7.98009 17.4406C6.75158 17.8413 5.50309 17.9415 4.23462 17.8213C3.93499 17.7913 3.8451 17.8714 3.79516 18.1619C3.52548 19.6346 3.24582 21.0973 2.95617 22.5599C2.9362 22.6801 2.82633 22.8705 2.75642 22.8705C2.07762 22.8854 1.40997 22.8836 0.716022 22.8818C0.480775 22.8811 0.242506 22.8805 -0.000244141 22.8805C0.0546815 22.5854 0.104984 22.2995 0.154295 22.0193L0.154305 22.0192ZM4.86299 15.4471L4.86303 15.4471C5.25371 15.4577 5.62263 15.4678 5.98233 15.4269C7.02107 15.3167 7.85007 14.8459 8.3195 13.8541C8.84886 12.732 8.46932 11.5399 7.47053 11.1892C6.76139 10.9388 6.03227 10.9889 5.30316 11.089C5.21326 11.0991 5.09341 11.2393 5.07343 11.3295C4.93394 12.0626 4.79446 12.7989 4.64974 13.5627L4.64955 13.5637L4.64919 13.5657L4.64902 13.5666C4.53491 14.1689 4.41755 14.7883 4.29438 15.4369C4.48963 15.4369 4.67873 15.4421 4.86299 15.4471ZM17.7082 20.957C17.5501 21.1219 17.4021 21.2878 17.2574 21.4499C16.9449 21.8 16.648 22.1326 16.2999 22.3997C15.2511 23.2111 14.0526 23.3915 12.8441 22.8304C11.6455 22.2794 11.1561 21.2075 11.1062 19.9452C10.9963 17.2904 11.9252 15.0964 14.1525 13.5736C15.5508 12.6119 17.1588 12.3214 18.8268 12.4115C19.3785 12.4441 19.9261 12.5401 20.4749 12.6364C20.7705 12.6882 21.0665 12.7401 21.3637 12.7822C21.7033 12.8323 21.7533 13.0226 21.6933 13.3132C21.6133 13.7315 21.5323 14.1495 21.4514 14.5672L21.4511 14.569L21.4511 14.5691L21.4511 14.5692C21.1486 16.1311 20.8468 17.6894 20.5947 19.2539C20.4501 20.1496 20.3924 21.0671 20.3353 21.9755C20.3253 22.1339 20.3154 22.292 20.305 22.4497C20.285 22.7703 20.2051 22.9006 19.8755 22.8905C19.2563 22.8705 18.637 22.8705 18.0178 22.8905C17.6982 22.9006 17.5883 22.7803 17.6183 22.4698C17.6468 22.1265 17.6651 21.7731 17.6842 21.4058L17.6842 21.4051L17.6844 21.4009L17.6845 21.3993C17.6921 21.2541 17.6997 21.1068 17.7082 20.957ZM18.4075 14.7657C17.4387 14.4953 16.6297 14.6856 15.9505 15.2566C14.6721 16.3386 14.0928 17.7411 14.2026 19.4142C14.2326 19.9251 14.4324 20.416 14.9717 20.6364C15.5111 20.8568 16.0005 20.6965 16.42 20.3359C16.6696 20.1155 16.9094 19.865 17.0891 19.5845C17.7936 18.506 17.9861 17.2894 18.1815 16.0536C18.2493 15.625 18.3175 15.194 18.4075 14.7657ZM32.5605 20.3759C33.1099 22.1391 34.618 23.1209 37.2648 23.1209C39.0826 23.0708 40.8904 22.0389 42.0191 19.9151C42.6183 18.773 42.8381 17.5508 42.7582 16.2685C42.6883 15.0362 42.1989 13.9943 41.2001 13.253C40.1513 12.4716 38.9528 12.3113 37.6743 12.4515C33.3995 12.9324 31.6516 17.4706 32.5605 20.3759ZM35.405 18.9044C35.4061 18.8532 35.4072 18.8024 35.4072 18.7527C35.4371 17.6006 35.7168 16.5287 36.406 15.577C36.7156 15.1562 37.1051 14.8356 37.6245 14.7154C38.6832 14.475 39.5522 15.0861 39.652 16.2382C39.7719 17.6507 39.4323 18.9531 38.5434 20.0851C38.2038 20.5059 37.7743 20.7964 37.225 20.8465C36.2362 20.9367 35.4871 20.2655 35.4072 19.2136C35.4005 19.1131 35.4028 19.0082 35.405 18.9048V18.9048V18.9047V18.9047V18.9045V18.9044V18.9044ZM45.1352 12.6619H47.6722C47.6322 13.2029 47.5923 13.7238 47.5423 14.2548C47.6345 14.1687 47.7237 14.0836 47.8111 14.0002L47.8115 13.9998L47.812 13.9993C47.9989 13.821 48.1778 13.6502 48.3613 13.4934C49.3501 12.6318 50.4788 12.2511 51.7872 12.4615C52.8659 12.6418 53.615 13.4333 53.7348 14.5453C53.8651 15.7024 53.6487 16.8247 53.4328 17.9447L53.3853 18.1919C53.298 18.6451 53.2117 19.0983 53.1255 19.5512L53.1252 19.5527L53.1248 19.5549L53.1244 19.5572L53.1243 19.5573L53.1243 19.5575C52.9346 20.5542 52.7451 21.5493 52.5463 22.5398C52.5163 22.67 52.3665 22.8604 52.2666 22.8704C51.4077 22.8904 50.5487 22.8804 49.6898 22.8704H49.6897C49.6609 22.8704 49.6321 22.8548 49.5884 22.8311C49.5714 22.8219 49.5522 22.8115 49.5299 22.8003C49.6897 21.9688 49.8495 21.1272 49.9994 20.2857C50.2291 18.9934 50.4488 17.711 50.6486 16.4187C50.6885 16.1983 50.6685 15.9679 50.6386 15.7475C50.5587 14.9761 49.9894 14.6254 49.2503 14.8559C48.5311 15.0863 48.1017 15.6473 47.7521 16.2684C47.2327 17.1801 47.0529 18.1919 46.8731 19.2037C46.8281 19.4546 46.7835 19.7049 46.739 19.9549L46.7389 19.9555L46.7389 19.9556L46.7389 19.9559C46.5861 20.814 46.434 21.6689 46.2639 22.5298C46.2339 22.66 46.0841 22.8604 45.9842 22.8704C45.2838 22.8943 44.5771 22.8929 43.8235 22.8913C43.6315 22.8908 43.4364 22.8904 43.2375 22.8904C43.8967 19.4442 44.516 16.0681 45.1352 12.6619ZM59.5375 20.7867C58.4788 20.6564 57.7697 19.9151 57.8396 18.8732C58.0604 18.8732 58.28 18.8766 58.4986 18.8799L58.4988 18.8799C58.9327 18.8866 59.3621 18.8932 59.7872 18.8732C60.816 18.8131 61.8247 18.6428 62.7636 18.1719C63.9622 17.5708 64.5215 16.579 64.4316 15.2867C64.3417 13.9743 63.6326 13.0226 62.3641 12.6419C60.4664 12.0709 58.7185 12.4716 57.2303 13.7439C55.4225 15.2867 54.7433 17.3304 55.003 19.6646C55.1828 21.3176 56.0817 22.4998 57.7197 22.9205C59.4776 23.3714 61.2055 23.1309 62.8735 22.4497C62.9933 22.3996 63.1332 22.2093 63.1232 22.089C63.0992 21.6002 63.0497 21.1115 63.0001 20.6227L63.0001 20.6225C62.9877 20.5002 62.9754 20.378 62.9634 20.2557C62.9306 20.2557 62.9062 20.254 62.8874 20.2527C62.8605 20.2509 62.8453 20.2498 62.8335 20.2557C62.7237 20.2958 62.6138 20.3359 62.5139 20.3759C61.5551 20.7466 60.5663 20.9069 59.5375 20.7867ZM61.0854 16.3487C60.4761 16.6693 58.898 16.8596 58.1289 16.6994C58.2887 15.3669 59.697 14.325 60.8856 14.6156C61.2851 14.7158 61.5748 14.9261 61.6447 15.3569C61.7146 15.7777 61.5048 16.1283 61.0854 16.3487ZM67.8176 18.9135C67.7277 19.8952 68.4269 20.6466 69.4956 20.7869C70.4944 20.9071 71.4532 20.7568 72.3921 20.4162C72.4784 20.3837 72.5619 20.3512 72.6535 20.3155L72.6539 20.3154C72.7316 20.2851 72.8152 20.2526 72.9114 20.2158C72.9309 20.4276 72.9525 20.635 72.9738 20.8397L72.974 20.8412C73.0181 21.2654 73.061 21.6773 73.0812 22.0892C73.0912 22.2094 72.9514 22.3998 72.8415 22.4499C71.1436 23.1512 69.3957 23.3916 67.6078 22.9007C65.9998 22.4599 65.1608 21.2878 64.9611 19.6849C64.7114 17.6311 65.2407 15.7778 66.669 14.255C68.2071 12.622 70.0948 12.041 72.2722 12.6421C73.6006 13.0128 74.3097 13.9745 74.3896 15.327C74.4695 16.6494 73.8703 17.6412 72.6218 18.2222C71.3633 18.8033 70.0249 18.8934 68.6666 18.9235C68.3969 18.9135 68.1172 18.9135 67.8176 18.9135ZM68.643 16.7506L68.6431 16.7506C69.0862 16.7284 69.513 16.7069 69.9348 16.6495C70.3344 16.5995 70.7339 16.4792 71.0934 16.3089C71.483 16.1386 71.6727 15.778 71.6128 15.3372C71.5529 14.9164 71.2732 14.716 70.8837 14.6159C69.7051 14.2953 68.2369 15.3772 68.107 16.7798C68.2887 16.7684 68.4671 16.7594 68.643 16.7506ZM74.9389 20.7868C74.809 21.468 74.6892 22.1392 74.5593 22.8806C74.7594 22.8806 74.9565 22.881 75.1514 22.8814C75.9199 22.883 76.6529 22.8845 77.3859 22.8605C77.4558 22.8605 77.5657 22.6702 77.5857 22.55C77.6875 22.0496 77.782 21.5469 77.8764 21.0442C78.0505 20.1176 78.2245 19.1915 78.4446 18.2822C78.934 16.2585 79.763 15.5573 81.7306 15.2968C81.8105 15.2868 81.9404 15.1966 81.9604 15.1265C82.0857 14.5507 82.198 13.9704 82.3145 13.3685C82.3744 13.0594 82.4353 12.7445 82.4997 12.4216C80.602 12.2212 79.5433 13.3232 78.6244 14.6757L78.6391 14.4812C78.6842 13.8827 78.7301 13.2736 78.7842 12.632C78.5766 12.632 78.3728 12.6313 78.1719 12.6307C77.5803 12.6288 77.0137 12.627 76.447 12.642C76.3671 12.652 76.2173 12.8323 76.2073 12.9425C75.9942 15.5174 75.4898 18.0357 74.9858 20.5524L74.9389 20.7868Z" fill="#57626C"/>
<path fill-rule="evenodd" clip-rule="evenodd" d="M48.495 0.575831C48.3938 0.549064 48.2927 0.522297 48.1916 0.499756C47.8819 0.499756 47.5723 0.499756 47.2427 0.509774C47.1301 0.532358 47.0176 0.556978 46.9041 0.581798C46.7658 0.612029 46.6262 0.642558 46.4836 0.670065C44.9555 0.960592 43.5172 1.49156 42.1289 2.19283C39.1226 3.71559 36.4258 5.68917 34.0088 8.02341C32.4007 9.56621 30.8426 11.1791 29.3344 12.8321C26.6876 15.7374 24.4204 18.9332 22.6126 22.4396C21.6837 24.2529 20.8447 26.1062 20.4652 28.1199C20.3953 28.4906 20.5151 28.9213 20.635 29.292C20.6849 29.4423 20.9646 29.5525 21.1543 29.6126C21.2043 29.6326 21.3541 29.3822 21.424 29.2419C21.4488 29.1876 21.4742 29.1319 21.5002 29.075C21.934 28.1248 22.5205 26.8398 23.0294 25.9891C24.1081 24.1858 24.9597 22.7902 26.1683 21.0771C28.1059 18.3221 30.3699 15.619 32.7471 13.2347C34.9943 10.9806 37.2448 8.96512 40.0714 7.44236C41.3698 6.7511 42.6982 6.06987 44.0566 5.50885C46.4037 4.53708 48.8508 3.87588 51.3677 3.50521C51.6374 3.46514 51.997 3.25476 52.0869 3.03436C52.1668 2.83399 51.977 2.4533 51.7872 2.26296C51.0181 1.47152 50.1192 0.870429 49.0006 0.690101C48.832 0.665056 48.6635 0.620443 48.495 0.575831ZM25.6288 14.2449C26.1082 12.9425 26.3479 11.59 26.3779 10.1875C26.3646 10.0372 26.3535 9.88695 26.3424 9.73668C26.3202 9.43613 26.298 9.13559 26.258 8.83504C25.9884 6.51082 24.9896 4.53724 23.4015 2.84416C23.2117 2.65382 22.952 2.50355 22.6924 2.41338C22.4327 2.3132 22.2629 2.46347 22.2829 2.76402C22.2833 2.77037 22.2838 2.77672 22.2843 2.78308C22.3038 3.03767 22.324 3.30133 22.3727 3.55546C22.4429 3.95579 22.5126 4.35661 22.5824 4.7577C22.8303 6.18335 23.0787 7.61243 23.3516 9.0354C23.6212 10.468 23.9209 11.8906 24.2405 13.3031C24.3504 13.754 24.5301 14.2048 24.7499 14.6255C24.9197 14.9461 25.1594 14.9161 25.3791 14.6255L25.3791 14.6255C25.479 14.5053 25.5789 14.3851 25.6288 14.2449Z" fill="#57626C"/>
</svg>
