<svg width="61" height="54" viewBox="0 0 61 54" fill="none" xmlns="http://www.w3.org/2000/svg">
<path fill-rule="evenodd" clip-rule="evenodd" d="M7.70026 37.2229H3.03342C2.71406 37.2229 2.44245 37.455 2.39265 37.7702L0.50514 49.7373C0.467624 49.9736 0.6505 50.1864 0.890027 50.1864H3.11802C3.43738 50.1864 3.70899 49.9543 3.75879 49.6385L4.26788 46.4108C4.31698 46.0947 4.58926 45.8629 4.90795 45.8629H6.38531C9.45953 45.8629 11.2336 44.3752 11.6972 41.4273C11.906 40.1376 11.7061 39.1243 11.102 38.4144C10.4388 37.6353 9.26216 37.2229 7.70026 37.2229ZM8.23868 41.5938C7.98353 43.2684 6.70401 43.2684 5.46684 43.2684H4.76259L5.25665 40.1408C5.28599 39.952 5.44975 39.8127 5.64084 39.8127H5.96361C6.80636 39.8127 7.60142 39.8127 8.01227 40.293C8.257 40.5797 8.33216 41.0054 8.23868 41.5938ZM21.6506 41.5401H19.4158C19.2253 41.5401 19.0608 41.6793 19.0315 41.8685L18.9326 42.4934L18.7763 42.267C18.2925 41.5647 17.2138 41.3301 16.1369 41.3301C13.6671 41.3301 11.558 43.2005 11.1471 45.8244C10.9336 47.133 11.2371 48.3845 11.9795 49.2573C12.6607 50.0598 13.6352 50.3942 14.7945 50.3942C16.7843 50.3942 17.888 49.1146 17.888 49.1146L17.7882 49.7358C17.7506 49.9732 17.9334 50.1861 18.1716 50.1861H20.1847C20.5049 50.1861 20.7749 49.954 20.8255 49.6382L22.0334 41.9891C22.0716 41.7539 21.8894 41.5401 21.6506 41.5401ZM18.5353 45.8898C18.3197 47.1665 17.3063 48.0236 16.0141 48.0236C15.3651 48.0236 14.8463 47.8155 14.5134 47.421C14.1831 47.0294 14.0574 46.4718 14.1626 45.8509C14.3641 44.5849 15.3945 43.7001 16.6671 43.7001C17.3016 43.7001 17.8176 43.9107 18.1573 44.3086C18.4978 44.7106 18.6329 45.2714 18.5353 45.8898ZM31.3072 41.5398H33.5531C33.8676 41.5398 34.0511 41.8925 33.8723 42.1505L26.4029 52.9322C26.282 53.1068 26.0827 53.2107 25.8699 53.2107H23.6268C23.311 53.2107 23.1266 52.8551 23.3095 52.5965L25.6353 49.3136L23.1617 42.0542C23.0761 41.8019 23.2624 41.5398 23.5308 41.5398H25.7376C26.0243 41.5398 26.2773 41.728 26.36 42.0024L27.6727 46.3868L30.7703 41.8243C30.8916 41.6462 31.0931 41.5398 31.3072 41.5398Z" fill="#57626C"/>
<path fill-rule="evenodd" clip-rule="evenodd" d="M55.6567 49.737L57.5719 37.551C57.6013 37.3618 57.7652 37.2226 57.9556 37.2219H60.1118C60.3499 37.2219 60.5328 37.4354 60.4952 37.6716L58.6065 49.6382C58.5572 49.954 58.2856 50.1861 57.9657 50.1861H56.04C55.8019 50.1861 55.6191 49.9732 55.6567 49.737ZM40.9885 37.2226H36.3208C36.0022 37.2226 35.7306 37.4547 35.6807 37.7698L33.7932 49.737C33.7557 49.9732 33.9385 50.1861 34.1769 50.1861H36.5719C36.7945 50.1861 36.9849 50.0237 37.0197 49.8027L37.5553 46.4105C37.6045 46.0944 37.8767 45.8626 38.1954 45.8626H39.672C42.7468 45.8626 44.5206 44.3749 44.9845 41.427C45.1939 40.1373 44.9927 39.1239 44.389 38.414C43.7261 37.635 42.5504 37.2226 40.9885 37.2226ZM41.5269 41.5934C41.2724 43.268 39.9928 43.268 38.7549 43.268H38.0514L38.5462 40.1405C38.5756 39.9516 38.7379 39.8124 38.9296 39.8124H39.2523C40.0945 39.8124 40.8903 39.8124 41.3008 40.2927C41.5459 40.5794 41.6204 41.0051 41.5269 41.5934ZM54.9376 41.5397H52.7043C52.5123 41.5397 52.3494 41.679 52.3207 41.8681L52.2218 42.4931L52.0649 42.2667C51.5811 41.5644 50.503 41.3297 49.4261 41.3297C46.9563 41.3297 44.8478 43.2002 44.4369 45.8241C44.2241 47.1327 44.5263 48.3842 45.2687 49.257C45.9512 50.0594 46.9244 50.3939 48.0837 50.3939C50.0735 50.3939 51.1769 49.1143 51.1769 49.1143L51.0774 49.7354C51.0398 49.9729 51.2227 50.1857 51.4623 50.1857H53.4746C53.7932 50.1857 54.0648 49.9536 54.1147 49.6378L55.3232 41.9888C55.3601 41.7535 55.1773 41.5397 54.9376 41.5397ZM51.8227 45.8894C51.6082 47.1662 50.5936 48.0232 49.3011 48.0232C48.6534 48.0232 48.1336 47.8151 47.8004 47.4207C47.4701 47.0291 47.346 46.4714 47.4499 45.8506C47.6523 44.5846 48.6815 43.6997 49.9541 43.6997C50.5889 43.6997 51.1045 43.9104 51.4447 44.3083C51.7863 44.7103 51.9215 45.2711 51.8227 45.8894Z" fill="#57626C"/>
<path d="M24.9714 32.9417L25.5452 29.2975L24.2672 29.2678H18.1646L22.4056 2.37628C22.4186 2.29509 22.4615 2.21939 22.524 2.16564C22.5866 2.1119 22.6668 2.08228 22.7501 2.08228H33.0402C36.4564 2.08228 38.8138 2.79315 40.0447 4.19624C40.6217 4.85447 40.9892 5.54229 41.167 6.29924C41.3533 7.09352 41.3568 8.04244 41.1746 9.19981L41.1613 9.28428V10.0259L41.7386 10.3528C42.2246 10.6106 42.6105 10.9057 42.9067 11.2436C43.4006 11.8063 43.7199 12.5216 43.8547 13.3696C43.994 14.2417 43.9479 15.2795 43.7199 16.4545C43.4565 17.806 43.0308 18.9831 42.4561 19.9463C41.9271 20.8338 41.2536 21.5698 40.454 22.1404C39.6904 22.6823 38.7831 23.0938 37.7574 23.3571C36.7633 23.6158 35.6303 23.7465 34.3873 23.7465H33.5865C33.014 23.7465 32.4575 23.9527 32.0211 24.3225C31.5834 24.6999 31.2935 25.2152 31.2048 25.7792L31.1445 26.1073L30.1308 32.5302L30.0847 32.7661C30.0727 32.8409 30.0518 32.8782 30.0212 32.9035C29.9937 32.9262 29.9543 32.9417 29.9157 32.9417H24.9714Z" fill="#383E43"/>
<path d="M42.2849 9.37012C42.2542 9.56648 42.2192 9.76722 42.1797 9.97347C40.8225 16.9407 36.18 19.3476 30.2504 19.3476H27.2315C26.5064 19.3476 25.8954 19.8742 25.7823 20.5894L24.2365 30.3926L23.7988 33.1712C23.7252 33.6408 24.0875 34.0643 24.5611 34.0643H29.916C30.5501 34.0643 31.0885 33.6035 31.1883 32.9783L31.2411 32.7061L32.2494 26.3082L32.3141 25.9573C32.4126 25.3298 32.9523 24.8691 33.5864 24.8691H34.3873C39.5751 24.8691 43.6365 22.7628 44.8235 16.6676C45.3193 14.1213 45.0626 11.9953 43.7505 10.5C43.3535 10.0492 42.8609 9.67508 42.2849 9.37012Z" fill="#57626C"/>
<path d="M40.8646 8.80446C40.6574 8.74411 40.4433 8.68926 40.2238 8.6399C40.0034 8.59165 39.7773 8.54886 39.5449 8.51156C38.7308 8.37991 37.839 8.31738 36.8834 8.31738H28.8181C28.6195 8.31738 28.431 8.36235 28.262 8.44354C27.89 8.62234 27.6137 8.97451 27.5468 9.40563L25.8308 20.2728L25.7815 20.5898C25.8945 19.8746 26.5056 19.348 27.2307 19.348H30.2496C36.1792 19.348 40.822 16.94 42.1789 9.97389C42.2193 9.76765 42.2534 9.5669 42.2841 9.37054C41.9408 9.18843 41.5688 9.03265 41.1684 8.89989C41.0698 8.86698 40.9678 8.83518 40.8646 8.80446Z" fill="#57626C"/>
<path d="M27.5467 9.4055C27.6137 8.97436 27.8903 8.62222 28.262 8.44449C28.4322 8.3633 28.6198 8.31833 28.8181 8.31833H36.8837C37.8393 8.31833 38.731 8.38086 39.5448 8.51251C39.7776 8.54981 40.0037 8.5926 40.2241 8.64085C40.4436 8.69024 40.6574 8.74509 40.8648 8.80541C40.9678 8.83613 41.0698 8.86793 41.1696 8.89977C41.57 9.03249 41.942 9.18938 42.2853 9.37039C42.6892 6.79566 42.2821 5.04261 40.8901 3.45519C39.3554 1.70764 36.5853 0.959473 33.0408 0.959473H22.7505C22.0264 0.959473 21.409 1.48602 21.2969 2.20239L17.011 29.3703C16.9264 29.9078 17.341 30.3929 17.8829 30.3929H24.236L25.831 20.2727L27.5467 9.4055Z" fill="#383E43"/>
</svg>
