<svg width="26" height="32" viewBox="0 0 26 32" fill="none" xmlns="http://www.w3.org/2000/svg">
<path fill-rule="evenodd" clip-rule="evenodd" d="M13.0001 32C13.0001 32 25.3078 23.3846 25.3078 12.3077C25.3078 9.04349 24.0111 5.91298 21.7029 3.60484C19.3948 1.2967 16.2643 0 13.0001 0C9.73587 0 6.60536 1.2967 4.29722 3.60484C1.98908 5.91298 0.692383 9.04349 0.692383 12.3077C0.692383 23.3846 13.0001 32 13.0001 32ZM7.14272 11.9562C7.14272 8.72138 9.76505 6.09905 12.9999 6.09905C16.2347 6.09905 18.857 8.72138 18.857 11.9562C18.857 15.191 16.2347 17.8133 12.9999 17.8133C9.76505 17.8133 7.14272 15.191 7.14272 11.9562ZM12.9999 4.09905C8.66048 4.09905 5.14272 7.61681 5.14272 11.9562C5.14272 16.2956 8.66048 19.8133 12.9999 19.8133C17.3392 19.8133 20.857 16.2956 20.857 11.9562C20.857 7.61681 17.3392 4.09905 12.9999 4.09905Z" fill="#FFC700"/>
</svg>
