<svg width="28" height="24" viewBox="0 0 28 24" fill="none" xmlns="http://www.w3.org/2000/svg">
<path fill-rule="evenodd" clip-rule="evenodd" d="M1.92424 10.3319C9.43791 6.94487 14.4483 4.71196 16.9551 3.63321C24.1129 0.552998 25.6002 0.0178937 26.5696 0.000185394C26.7828 -0.00366877 27.2595 0.0510193 27.5683 0.31029C28.0264 0.694874 28.029 1.52966 27.9782 2.08216C27.5903 6.29883 25.9119 16.5314 25.058 21.2541C24.6967 23.2525 23.9853 23.9226 23.2966 23.9881C21.7999 24.1306 20.6633 22.9647 19.2137 21.9815C16.9452 20.443 15.6637 19.4853 13.4617 17.984C10.917 16.249 12.5666 15.2955 14.0168 13.7371C14.3964 13.3293 20.9911 7.1231 21.1187 6.56008C21.1347 6.48967 21.1495 6.22717 20.9988 6.08862C20.8481 5.95008 20.6257 5.99737 20.4652 6.03508C20.2377 6.08852 16.6138 8.56675 9.59356 13.4697C8.56491 14.2005 7.63321 14.5565 6.79847 14.5379C5.87816 14.5174 4.108 13.9996 2.792 13.557C1.1779 13.0141 -0.104969 12.7271 0.00678645 11.8052C0.0649796 11.3249 0.704097 10.8338 1.92424 10.3319Z" fill="#FFC700"/>
</svg>
